<mxfile host="app.diagrams.net" modified="2023-07-07T03:52:12.574Z" agent="Mozilla/5.0 (Windows NT 10.0; Win64; x64) AppleWebKit/537.36 (KHTML, like Gecko) Chrome/114.0.0.0 Safari/537.36" version="21.5.0" etag="zf1JZZA9tejD70VUXbWv" type="github">
  <diagram name="Trang-1" id="CXcjoigG7cjlylP8qa9c">
    <mxGraphModel>
      <root>
        <mxCell id="0" />
        <mxCell id="1" parent="0" />
      </root>
    </mxGraphModel>
  </diagram>
</mxfile>
